<?xml version="1.0" encoding="UTF-8"?>
<svg height="1024" viewBox="0 0 1024 1024" width="1024" xmlns="http://www.w3.org/2000/svg">
  <rect fill="#FF4245" height="122.88" rx="61.44" width="299.008" x="569.344" y="849.92"/>
  <path d="M654.27,940.22L654.27,882.50L666.35,882.50L666.35,930.26L691.59,930.26L691.59,940.22ZM697.97,940.22L697.97,897.34L709.65,897.34L709.65,940.22ZM703.81,891.84Q701.19,891.84 699.38,890.04Q697.57,888.24 697.57,885.76Q697.57,883.24 699.38,881.46Q701.19,879.68 703.81,879.68Q706.45,879.68 708.25,881.46Q710.05,883.24 710.05,885.76Q710.05,888.24 708.25,890.04Q706.45,891.84 703.81,891.84ZM734.51,941.10Q727.37,941.10 723.94,938.11Q720.51,935.12 720.51,928.24L720.51,906.14L714.55,906.14L714.55,897.34L720.51,897.34L720.51,886.88L732.31,886.88L732.31,897.34L740.15,897.34L740.15,906.14L732.31,906.14L732.31,926.96Q732.31,929.96 733.64,931.13Q734.97,932.30 737.63,932.30Q738.41,932.30 739.01,932.24Q739.61,932.18 740.15,932.12L740.15,940.66Q739.17,940.82 737.75,940.96Q736.33,941.10 734.51,941.10ZM766.09,941.10Q759.53,941.10 754.80,938.40Q750.07,935.70 747.53,930.70Q744.99,925.70 744.99,918.86L744.99,918.82Q744.99,912.00 747.53,906.98Q750.07,901.96 754.70,899.21Q759.33,896.46 765.61,896.46Q771.89,896.46 776.47,899.13Q781.05,901.80 783.54,906.64Q786.03,911.48 786.03,917.96L786.03,921.56L750.73,921.56L750.73,914.20L780.51,914.20L774.97,921.08L774.97,916.58Q774.97,912.82 773.81,910.28Q772.65,907.74 770.59,906.46Q768.53,905.18 765.81,905.18Q763.09,905.18 760.99,906.50Q758.89,907.82 757.70,910.37Q756.51,912.92 756.51,916.58L756.51,921.12Q756.51,924.66 757.70,927.18Q758.89,929.70 761.09,931.04Q763.29,932.38 766.33,932.38Q768.73,932.38 770.49,931.63Q772.25,930.88 773.36,929.72Q774.47,928.56 774.87,927.34L774.95,927.10L785.67,927.10L785.57,927.56Q785.07,929.92 783.68,932.31Q782.29,934.70 779.91,936.70Q777.53,938.70 774.10,939.90Q770.67,941.10 766.09,941.10Z" fill="#FFFFFF"/>
</svg>
